<?xml version="1.0" encoding="UTF-8"?>
<!DOCTYPE svg PUBLIC "-//W3C//DTD SVG 1.1//EN" "http://www.w3.org/Graphics/SVG/1.1/DTD/svg11.dtd">
<!-- Creator: CorelDRAW X6 -->
<svg xmlns="http://www.w3.org/2000/svg" xml:space="preserve" width="5.04166in" height="15in" version="1.1" style="shape-rendering:geometricPrecision; text-rendering:geometricPrecision; image-rendering:optimizeQuality; fill-rule:evenodd; clip-rule:evenodd"
viewBox="0 0 5042 15000"
 xmlns:xlink="http://www.w3.org/1999/xlink">
 <defs>
  <style type="text/css">
   <![CDATA[
    .fil0 {fill:none;fill-rule:nonzero}
   ]]>
  </style>
 </defs>
 <g id="Layer_x0020_1">
  <metadata id="CorelCorpID_0Corel-Layer"/>
  <g id="_152962296">
   <path class="fil0" d="M2031 619c101,45 191,95 271,152 51,41 78,69 81,84 -16,56 -66,136 -151,239 -84,87 -148,142 -194,168l0 29c35,-9 67,-20 94,-35 39,-16 109,-73 209,-172 146,-157 234,-235 264,-235l0 -18c0,-10 -12,-18 -37,-24 0,0 -7,-10 -19,-31 -39,-37 -86,-68 -140,-92 -159,-59 -277,-89 -355,-89l1 0c0,-2 -8,-7 -24,-17l0 42z"/>
  </g>
  <g id="_152962944">
   <path class="fil0" d="M2393 1822c-52,43 -79,80 -83,112 -32,105 -48,348 -48,729 -35,11 -62,18 -82,24 -54,22 -82,32 -82,32 -44,0 -66,12 -66,37 4,24 16,35 35,35 61,-18 131,-27 212,-27 65,0 124,11 179,34l16 0 65 -57c29,-13 44,-24 44,-35 0,-17 -18,-29 -53,-35 -2,0 -15,1 -37,3l-27 0c-42,0 -82,-6 -117,-17 7,-44 14,-76 21,-94l31 -33c-31,-115 -46,-236 -46,-363l0 -22c0,-116 17,-201 52,-255 9,-9 18,-23 27,-41 0,-17 -7,-27 -21,-31l-9 0 -11 4z"/>
  </g>
  <g id="_152947032">
   <path class="fil0" d="M2150 3647c-68,60 -107,103 -119,129l0 14c33,38 62,57 88,57l13 0c20,-35 54,-75 103,-122 83,-77 163,-140 242,-189l189 -113c-221,52 -394,126 -517,224zm204 154l0 0c-110,52 -203,113 -278,183l0 13c34,49 69,81 104,96l18 0c38,-59 78,-113 122,-162 68,-61 143,-120 226,-178l0 -32c-54,20 -118,47 -192,81z"/>
  </g>
  <g id="_152947320">
   <path class="fil0" d="M2245 6976c44,-31 79,-104 104,-218 16,-72 25,-109 27,-112 60,134 105,213 135,235l34 0c-69,-143 -104,-295 -104,-455l0 -2c0,-62 3,-111 9,-148l-15 -21c-25,0 -44,8 -57,25 -24,16 -42,60 -54,132 -31,76 -46,123 -46,141 -32,128 -67,229 -105,304 -24,55 -71,122 -141,199l0 28c10,0 16,1 18,2l11 0c90,-34 161,-51 214,-51l10 0c29,0 58,5 89,16 45,18 71,27 78,27 8,0 25,-3 49,-9 60,-20 96,-38 107,-53l0 -6c0,-18 -98,-33 -295,-47 -18,0 -33,0 -46,1l-21 13z"/>
  </g>
  <g id="_152947464">
   <path class="fil0" d="M2339 7826c58,0 130,3 215,9 -85,184 -128,346 -128,486l0 15c2,120 39,199 111,237l34 0c-46,-85 -69,-161 -69,-230 0,-138 59,-278 178,-419 61,-65 110,-109 146,-131l-7 -24c-138,-1 -236,-2 -293,-2l-172 0c-153,0 -260,18 -320,54 0,10 5,19 15,28 24,13 66,50 126,113 102,126 153,249 153,369l0 26c0,71 -21,150 -64,236l36 0c71,-64 107,-163 107,-298 0,-131 -30,-287 -90,-469l22 0z"/>
  </g>
  <g id="_152946792">
   <path class="fil0" d="M2031 10769c101,45 191,95 271,152 51,41 78,69 81,84 -16,56 -66,136 -151,239 -84,87 -148,142 -194,168l0 29c35,-9 67,-20 94,-35 39,-16 109,-73 209,-172 146,-157 234,-235 264,-235l0 -18c0,-10 -12,-18 -37,-24 0,0 -7,-10 -19,-31 -39,-37 -86,-68 -140,-92 -159,-59 -277,-89 -355,-89l1 0c0,-2 -8,-7 -24,-17l0 42z"/>
  </g>
  <g id="_152947128">
   <path class="fil0" d="M2393 11972c-52,43 -79,80 -83,112 -32,105 -48,348 -48,729 -35,11 -62,18 -82,24 -54,22 -82,32 -82,32 -44,0 -66,12 -66,37 4,24 16,35 35,35 61,-18 131,-27 212,-27 65,0 124,11 179,34l16 0 65 -57c29,-13 44,-24 44,-35 0,-17 -18,-29 -53,-35 -2,0 -15,1 -37,3l-27 0c-42,0 -82,-6 -117,-17 7,-44 14,-76 21,-94l31 -33c-31,-115 -46,-236 -46,-363l0 -22c0,-116 17,-201 52,-255 9,-9 18,-23 27,-41 0,-17 -7,-27 -21,-31l-9 0 -11 4z"/>
  </g>
  <g id="_152946984">
   <path class="fil0" d="M2150 13797c-68,60 -107,103 -119,129l0 14c33,38 62,57 88,57l13 0c20,-35 54,-75 103,-122 83,-77 163,-140 242,-189l189 -113c-221,52 -394,126 -517,224zm204 154l0 0c-110,52 -203,113 -278,183l0 13c34,49 69,81 104,96l18 0c38,-59 78,-113 122,-162 68,-61 143,-120 226,-178l0 -32c-54,20 -118,47 -192,81z"/>
  </g>
 </g>
</svg>
