<?xml version="1.0" encoding="UTF-8"?>
<!DOCTYPE svg PUBLIC "-//W3C//DTD SVG 1.1//EN" "http://www.w3.org/Graphics/SVG/1.1/DTD/svg11.dtd">
<!-- Creator: CorelDRAW X6 -->
<svg xmlns="http://www.w3.org/2000/svg" xml:space="preserve" width="5.04166in" height="15in" version="1.1" style="shape-rendering:geometricPrecision; text-rendering:geometricPrecision; image-rendering:optimizeQuality; fill-rule:evenodd; clip-rule:evenodd"
viewBox="0 0 5042 15000"
 xmlns:xlink="http://www.w3.org/1999/xlink">
 <defs>
  <style type="text/css">
   <![CDATA[
    .fil0 {fill:none;fill-rule:nonzero}
   ]]>
  </style>
 </defs>
 <g id="Layer_x0020_1">
  <metadata id="CorelCorpID_0Corel-Layer"/>
  <g id="_156375688">
   <path class="fil0" d="M2293 752c43,0 97,2 160,7 -64,138 -96,259 -96,363l0 11c2,90 29,149 83,177l25 0c-34,-63 -52,-120 -52,-171 0,-103 44,-208 133,-313 46,-49 82,-81 109,-98l-5 -18c-103,-1 -176,-1 -219,-1l-128 0c-115,0 -194,13 -239,40 0,7 4,14 11,21 18,9 50,38 94,85 76,94 114,186 114,276l0 19c0,53 -16,112 -48,176l27 0c53,-48 80,-122 80,-223 0,-98 -22,-215 -67,-350l16 0z"/>
  </g>
  <g id="_156374968">
   <path class="fil0" d="M2063 1913c61,27 115,57 163,91 30,24 46,40 48,49 -9,33 -39,80 -89,142 -50,51 -89,85 -116,100l0 21c23,-6 43,-13 60,-22 24,-9 66,-44 126,-103 86,-93 139,-140 158,-140l0 -12c0,-7 -8,-12 -24,-16l-11 -18c-24,-23 -52,-41 -85,-56 -95,-36 -166,-54 -213,-54l0 0c0,-1 -5,-5 -16,-11l0 30z"/>
  </g>
  <g id="_156375784">
   <path class="fil0" d="M2076 2979c0,13 12,19 35,19 9,11 17,16 24,16 51,-7 86,-11 105,-11 -3,32 -6,64 -8,96 0,2 -9,3 -26,3 -14,0 -29,-4 -45,-12 -10,6 -15,10 -15,12 -6,5 -34,13 -83,25l0 19c19,3 34,4 46,4l5 0 107 -4c1,0 4,3 7,9 -1,35 -1,56 -2,64 1,38 4,67 8,89 13,59 24,89 34,89l7 0 9 -10c4,-26 11,-98 21,-216 26,-3 47,-7 62,-12 39,-17 63,-25 73,-25l0 -23c-13,0 -21,0 -26,1 -47,0 -81,-6 -102,-18 4,-43 7,-72 9,-88 19,0 60,10 121,31 31,-32 47,-56 47,-71 0,-9 -15,-15 -45,-15l-233 4c-42,-1 -74,-2 -96,-4 -26,8 -40,18 -40,30z"/>
  </g>
  <g id="_156376360">
   <path class="fil0" d="M2064 4063l0 17c11,4 19,6 24,6l2 0c12,0 30,-1 52,-2 1,0 5,1 11,4 12,6 19,15 19,27 6,0 11,59 15,177 0,0 0,0 0,1l23 0c27,-73 40,-125 40,-158 -4,-26 -7,-42 -7,-48 0,-4 2,-10 6,-16 0,2 5,3 15,3l0 2c0,4 0,13 1,30l0 2c-6,92 -9,143 -9,153 0,12 1,23 3,34 5,8 8,88 11,240l26 0c20,-111 30,-185 30,-223 -2,-47 -3,-78 -3,-95 0,-11 1,-23 2,-35 7,-53 12,-86 16,-97 1,-9 5,-14 12,-14l0 -19c-27,-15 -60,-23 -97,-23 -73,0 -138,12 -193,35z"/>
  </g>
  <g id="_156376192">
   <path class="fil0" d="M2194 5583c0,4 0,6 0,7 -27,0 -52,5 -75,14 -18,9 -39,27 -64,56 50,-16 88,-23 114,-23l10 0c33,0 70,5 111,16 10,-4 15,-8 17,-14l0 -2c0,-4 -1,-7 -4,-11 -19,-31 -31,-52 -34,-65 -37,-94 -55,-180 -55,-257 0,-74 16,-142 48,-204 22,-36 33,-56 33,-61 -1,-10 -7,-15 -16,-15l-10 0c-87,107 -130,213 -130,317l0 12c0,30 2,63 7,98 -2,5 -30,31 -82,78l0 5c0,9 11,15 34,18l5 0c20,-8 39,-21 58,-37 22,29 34,53 34,70z"/>
  </g>
  <g id="_156376336">
   <path class="fil0" d="M2329 6642c32,16 75,27 128,34 52,0 89,-8 112,-24 53,-39 79,-82 79,-128 0,-33 -29,-80 -86,-142 21,62 32,100 32,116 0,42 -18,75 -55,97 -40,19 -71,29 -93,29 -23,0 -48,-7 -78,-21 -48,-26 -86,-77 -114,-153 2,0 17,-14 46,-42 110,-101 216,-202 318,-304l-33 0c-43,31 -75,53 -93,67 -102,70 -190,137 -264,202 -7,-19 -19,-28 -35,-28 -26,0 -40,22 -44,65 1,9 2,21 6,35 -1,0 -15,14 -43,43 -32,32 -48,51 -48,57 0,4 1,9 4,18 17,32 33,48 48,48 6,0 22,-18 48,-53 14,-19 22,-30 24,-33 41,54 89,94 143,118z"/>
  </g>
  <g id="_156375808">
   <path class="fil0" d="M2293 8335c43,0 97,2 160,7 -64,138 -96,259 -96,363l0 11c2,90 29,149 83,177l25 0c-34,-63 -52,-120 -52,-171 0,-103 44,-208 133,-313 46,-49 82,-81 109,-98l-5 -18c-103,-1 -176,-1 -219,-1l-128 0c-115,0 -194,13 -239,40 0,7 4,14 11,21 18,9 50,38 94,85 76,94 114,186 114,276l0 19c0,53 -16,112 -48,176l27 0c53,-48 80,-122 80,-223 0,-98 -22,-215 -67,-350l16 0z"/>
  </g>
  <g id="_156375904">
   <path class="fil0" d="M2063 9496c61,27 115,57 163,91 30,24 46,40 48,49 -9,33 -39,80 -89,142 -50,51 -89,85 -116,100l0 21c23,-6 43,-13 60,-22 24,-9 66,-44 126,-103 86,-93 139,-140 158,-140l0 -12c0,-7 -8,-12 -24,-16l-11 -18c-24,-23 -52,-41 -85,-56 -95,-36 -166,-54 -213,-54l0 0c0,-1 -5,-5 -16,-11l0 30z"/>
  </g>
  <g id="_156376600">
   <path class="fil0" d="M2076 10562c0,13 12,19 35,19 9,11 17,16 24,16 51,-7 86,-11 105,-11 -3,32 -6,64 -8,96 0,2 -9,3 -26,3 -14,0 -29,-4 -45,-12 -10,6 -15,10 -15,12 -6,5 -34,13 -83,25l0 19c19,3 34,4 46,4l5 0 107 -4c1,0 4,3 7,9 -1,35 -1,56 -2,64 1,38 4,67 8,89 13,59 24,89 34,89l7 0 9 -10c4,-26 11,-98 21,-216 26,-3 47,-7 62,-12 39,-17 63,-25 73,-25l0 -23c-13,0 -21,0 -26,1 -47,0 -81,-6 -102,-18 4,-43 7,-72 9,-88 19,0 60,10 121,31 31,-32 47,-56 47,-71 0,-9 -15,-15 -45,-15l-233 4c-42,-1 -74,-2 -96,-4 -26,8 -40,18 -40,30z"/>
  </g>
  <g id="_156376624">
   <path class="fil0" d="M2064 11647l0 17c11,4 19,6 24,6l2 0c12,0 30,-1 52,-2 1,0 5,1 11,4 12,6 19,15 19,27 6,0 11,59 15,177 0,0 0,0 0,1l23 0c27,-73 40,-125 40,-158 -4,-26 -7,-42 -7,-48 0,-4 2,-10 6,-16 0,2 5,3 15,3l0 2c0,4 0,13 1,30l0 2c-6,92 -9,143 -9,153 0,12 1,23 3,34 5,8 8,88 11,240l26 0c20,-111 30,-185 30,-223 -2,-47 -3,-78 -3,-95 0,-11 1,-23 2,-35 7,-53 12,-86 16,-97 1,-9 5,-14 12,-14l0 -19c-27,-15 -60,-23 -97,-23 -73,0 -138,12 -193,35z"/>
  </g>
  <g id="_156377032">
   <path class="fil0" d="M2194 13166c0,4 0,6 0,7 -27,0 -52,5 -75,14 -18,9 -39,27 -64,56 50,-16 88,-23 114,-23l10 0c33,0 70,5 111,16 10,-4 15,-8 17,-14l0 -2c0,-4 -1,-7 -4,-11 -19,-31 -31,-52 -34,-65 -37,-94 -55,-180 -55,-257 0,-74 16,-142 48,-204 22,-36 33,-56 33,-61 -1,-10 -7,-15 -16,-15l-10 0c-87,107 -130,213 -130,317l0 12c0,30 2,63 7,98 -2,5 -30,31 -82,78l0 5c0,9 11,15 34,18l5 0c20,-8 39,-21 58,-37 22,29 34,53 34,70z"/>
  </g>
  <g id="_156377176">
   <path class="fil0" d="M2436 13853c-6,110 -9,182 -9,216l0 37c-4,48 -10,72 -18,72 0,6 -36,9 -109,9l-29 0c-59,0 -98,-4 -117,-13 -8,-11 -19,-17 -34,-17 -39,5 -58,13 -58,26l0 6c15,18 22,32 22,45 -1,10 -3,17 -5,23 2,3 3,7 3,14 52,7 87,10 104,10l21 0 8 1c58,0 129,-13 212,-38l6 0c5,0 19,3 42,9l11 -5c25,-48 37,-125 37,-231 -3,-96 -6,-153 -8,-172 0,-40 -16,-81 -49,-123l-13 11c-5,-5 -12,-8 -21,-8l-54 0c-93,0 -166,7 -218,20 -40,13 -60,39 -60,78 3,28 12,42 28,42 11,-2 29,-13 56,-34 48,-29 88,-46 120,-51 69,-6 115,-14 138,-23 -4,20 -6,52 -6,96z"/>
  </g>
 </g>
</svg>
