<?xml version="1.0" encoding="UTF-8"?>
<!DOCTYPE svg PUBLIC "-//W3C//DTD SVG 1.1//EN" "http://www.w3.org/Graphics/SVG/1.1/DTD/svg11.dtd">
<!-- Creator: CorelDRAW X6 -->
<svg xmlns="http://www.w3.org/2000/svg" xml:space="preserve" width="5.04166in" height="15in" version="1.1" style="shape-rendering:geometricPrecision; text-rendering:geometricPrecision; image-rendering:optimizeQuality; fill-rule:evenodd; clip-rule:evenodd"
viewBox="0 0 5042 15000"
 xmlns:xlink="http://www.w3.org/1999/xlink">
 <defs>
  <style type="text/css">
   <![CDATA[
    .fil0 {fill:none;fill-rule:nonzero}
   ]]>
  </style>
 </defs>
 <g id="Layer_x0020_1">
  <metadata id="CorelCorpID_0Corel-Layer"/>
  <g id="_175199208">
   <path class="fil0" d="M2259 1773l0 22c0,35 9,78 28,130 19,48 52,90 100,125 57,32 114,48 173,48 0,-2 3,-4 10,-4l0 -27 -9 -14c-125,-34 -188,-106 -188,-216l0 -10c0,-141 87,-326 262,-554 37,-41 56,-69 56,-84 0,-23 -16,-34 -49,-34 -208,12 -341,18 -398,18 -27,-1 -40,-2 -40,-2l2 0 -1 -29c0,-147 10,-263 29,-349 -3,-19 -12,-29 -27,-29l-2 0c-20,0 -41,13 -63,40 -59,86 -89,167 -89,242 3,41 4,65 4,72 27,216 40,346 40,390l0 47c0,47 -11,118 -33,212l37 0c20,0 38,-20 54,-60 39,-75 59,-154 59,-237 0,-42 -2,-111 -5,-206 12,-1 27,-2 45,-2 70,0 130,8 179,25 -118,171 -177,332 -177,485z"/>
  </g>
  <g id="_175198824">
   <path class="fil0" d="M2081 2793l0 9c17,22 25,55 25,98l0 98c0,11 19,29 56,55 97,95 159,161 186,196l-323 384 0 28 24 0c10,0 80,-54 210,-163 118,-103 177,-154 178,-154 73,74 125,124 155,150 94,77 170,121 229,134l0 -32 -60 -56c-100,-107 -177,-202 -231,-283 9,-11 70,-68 184,-171 22,-55 32,-121 32,-198l0 -15c0,-27 -8,-47 -24,-58l-23 0c-95,126 -180,232 -255,320 -15,-19 -82,-120 -200,-302 -42,-75 -75,-112 -99,-112 -42,17 -63,41 -63,71z"/>
  </g>
  <g id="_175198896">
   <path class="fil0" d="M2594 5385c65,33 152,55 260,68 104,0 179,-16 224,-47 106,-78 160,-164 160,-259 0,-66 -54,-157 -161,-272 39,113 58,186 58,218 0,88 -38,155 -114,201 -83,39 -147,59 -193,59 -47,0 -100,-14 -160,-42 -100,-54 -178,-159 -234,-316 3,0 35,-29 95,-88 225,-206 439,-410 642,-613l-55 0c-89,63 -152,108 -189,136 -208,142 -388,281 -543,416 -14,-41 -38,-61 -70,-61 -49,0 -78,43 -86,129 1,19 6,43 12,72l-88 90c-65,65 -97,103 -97,114 0,7 2,18 7,35 33,63 64,95 93,95 12,0 42,-35 93,-106 34,-44 52,-68 54,-72 85,113 183,194 293,243z"/>
  </g>
  <g id="_175198992">
   <path class="fil0" d="M2496 6045c-63,52 -96,98 -101,137 -39,128 -59,424 -59,888 -43,13 -76,23 -100,29 -66,26 -99,40 -100,40 -54,0 -81,15 -81,45 5,29 19,43 43,43 74,-22 160,-33 258,-33 79,0 151,14 218,41l19 0 80 -69c35,-15 53,-30 53,-43 0,-21 -22,-35 -65,-42 -3,0 -18,1 -45,4l-32 0c-52,0 -99,-7 -143,-20 9,-54 17,-92 26,-114l37 -40c-37,-140 -56,-287 -56,-442l0 -27c0,-141 21,-244 63,-311 11,-12 22,-28 33,-50 0,-20 -8,-33 -25,-37l-12 0 -13 4z"/>
  </g>
  <g id="_175198560">
   <path class="fil0" d="M2329 8362c-106,68 -173,115 -201,139l0 18c22,11 41,23 56,39 23,29 46,82 69,160 33,150 57,241 71,271l104 41c57,34 98,51 125,51 42,-4 96,-35 164,-92 58,-46 87,-84 87,-116 0,-31 -4,-68 -13,-111 -30,0 -46,18 -48,52 -10,44 -29,85 -58,122 -41,40 -78,63 -112,69l-15 0c0,0 -7,-4 -19,-12 -26,-24 -45,-49 -57,-74 -59,-128 -88,-262 -88,-401 0,-13 14,-37 42,-70 57,-60 106,-101 148,-123 55,-30 117,-57 187,-79 85,-15 127,-35 127,-62 0,-15 -18,-28 -52,-37 -288,-54 -457,-97 -506,-129 -35,4 -89,31 -160,82 -76,60 -118,103 -124,127 0,18 12,31 37,40l6 -6c101,-50 215,-75 343,-75l14 0c66,0 133,5 201,16 -139,59 -249,113 -328,161z"/>
  </g>
  <g id="_175198656">
   <path class="fil0" d="M2316 10558c54,-38 96,-126 127,-265 19,-87 30,-133 32,-137 73,163 128,259 164,287l42 0c-84,-174 -127,-359 -127,-555l0 -2c0,-75 4,-135 11,-180l-18 -26c-31,0 -54,10 -70,30 -29,20 -51,73 -66,160 -37,92 -56,149 -56,172 -39,156 -82,279 -128,371 -30,67 -87,148 -172,243l0 34c12,0 19,1 22,2l14 0c109,-41 196,-62 260,-62l12 0c35,0 71,6 109,19 55,22 86,32 95,32 10,0 30,-4 60,-12 73,-25 117,-46 130,-65l0 -8c0,-22 -120,-40 -359,-57 -22,0 -40,0 -56,1l-25 16z"/>
  </g>
  <g id="_175200000">
   <path class="fil0" d="M2398 12431l-13 26c9,0 13,20 13,60l68 -114c38,-47 57,-79 57,-96l0 -6c-16,-39 -24,-65 -24,-76l0 -17c0,-27 14,-60 42,-99 43,-56 65,-92 65,-111 -13,0 -19,-2 -19,-6 0,-3 6,-9 17,-16l-292 0 117 -132c92,-111 146,-190 162,-239 16,-41 30,-111 44,-211 -7,-22 -19,-33 -35,-33 -23,0 -38,22 -46,65 -25,112 -63,191 -114,239 -55,54 -169,159 -342,315 -15,0 -30,31 -43,93 5,33 23,50 52,50 86,-20 152,-29 196,-29 12,0 46,1 101,3l-6 334z"/>
  </g>
  <g id="_175199976">
   <path class="fil0" d="M2663 13525c-10,180 -14,297 -14,353l0 60c-7,78 -16,117 -29,117 0,10 -59,15 -178,15l-47 0c-97,0 -160,-7 -190,-21 -12,-19 -31,-28 -55,-28 -63,8 -94,22 -94,42l0 10c24,29 36,53 36,73 -2,16 -5,29 -9,38 3,4 4,12 4,22 85,11 142,17 170,17l34 0 14 2c95,0 211,-21 346,-63l9 0c9,0 31,5 68,14l19 -9c40,-78 60,-203 60,-376 -5,-156 -9,-250 -14,-281 0,-65 -27,-132 -81,-201l-22 19c-9,-9 -20,-13 -34,-13l-88 0c-152,0 -271,11 -356,32 -66,21 -98,63 -98,128 4,46 20,68 46,68 17,-3 47,-22 91,-55 78,-47 143,-75 196,-83 113,-10 188,-22 226,-38 -7,33 -10,85 -10,156z"/>
  </g>
 </g>
</svg>
